<svg xmlns="http://www.w3.org/2000/svg" width="450" height="920" viewBox="0 0 450 920">
<defs><linearGradient id="ti" x1="0" y1="0" x2="1" y2="0.35"><stop offset="0" stop-color="#8E8E93"></stop><stop offset=".12" stop-color="#E6E6EA"></stop><stop offset=".3" stop-color="#B9B9BF"></stop><stop offset=".52" stop-color="#F2F2F4"></stop><stop offset=".72" stop-color="#A8A8AE"></stop><stop offset=".88" stop-color="#E3E3E7"></stop><stop offset="1" stop-color="#8E8E93"></stop></linearGradient>
<clipPath id="sc"><rect x="0" y="0" width="402" height="874" rx="40"></rect></clipPath></defs>
<rect width="450" height="920" fill="#FFFFFF"></rect>
<g id="frame">
<rect x="12" y="11" width="426" height="898" rx="56" fill="url(#ti)"></rect>
<rect x="20" y="19" width="410" height="882" rx="48" fill="#0B0B0D"></rect>
<rect x="7" y="228" width="6" height="42" rx="2" fill="#A6A6AC"></rect>
<rect x="6" y="290" width="7" height="68" rx="2" fill="#BDBDC3"></rect>
<rect x="6" y="376" width="7" height="68" rx="2" fill="#BDBDC3"></rect>
<rect x="437" y="318" width="7" height="100" rx="2" fill="#BDBDC3"></rect></g>
<g id="screen" transform="translate(24 23)"><g clip-path="url(#sc)"><rect width="402" height="874" fill="#F6F7FA"></rect>
<rect x="0" y="0" width="402" height="191" fill="#001E5A"></rect><rect x="138.5" y="13.665" width="125" height="37" rx="18.5" fill="#000"></rect><text x="70.5" y="37.3" font-family="Pretendard, Pretendard Variable, sans-serif" font-size="15" font-weight="700" fill="#fff" text-anchor="middle">9:41</text><rect x="285.09" y="34" width="3" height="4" rx="1" fill="#fff" fill-opacity="1"></rect><rect x="290.28999999999996" y="31" width="3" height="7" rx="1" fill="#fff" fill-opacity="1"></rect><rect x="295.48999999999995" y="28" width="3" height="10" rx="1" fill="#fff" fill-opacity="1"></rect><rect x="300.69" y="25" width="3" height="13" rx="1" fill="#fff" fill-opacity="0.4"></rect><g fill="none" stroke="#fff" stroke-width="1.7" stroke-linecap="round"><path d="M311.8 29.4a10.5 10.5 0 0 1 15 0"></path><path d="M314.4 32.3a6.9 6.9 0 0 1 9.8 0"></path><path d="M317.1 35.1a3.2 3.2 0 0 1 4.4 0"></path></g><rect x="335.08" y="25.67" width="22" height="11.5" rx="3.4" fill="none" stroke="#fff" stroke-width="1"></rect><rect x="336.8" y="27.4" width="18.5" height="8" rx="2.1" fill="#fff"></rect><path d="M358.6 29.4c1 .35 1.4.95 1.4 1.9s-.4 1.55-1.4 1.9z" fill="#fff" fill-opacity=".45"></path><text x="20" y="81.8" font-family="Pretendard, Pretendard Variable, sans-serif" font-size="20" font-weight="600" fill="#fff" fill-opacity="0.8">‹</text><rect x="38" y="64" width="26" height="26" rx="8" fill="#fff" fill-opacity="0.15" stroke="#fff" stroke-width="1" stroke-dasharray="3 3"></rect><text x="51" y="78.3" font-family="Pretendard, Pretendard Variable, sans-serif" font-size="8" font-weight="600" fill="#fff" fill-opacity="0.7" text-anchor="middle">로고</text><text x="74" y="82.0" font-family="Pretendard, Pretendard Variable, sans-serif" font-size="19" font-weight="800" fill="#fff">삼성전자</text><text x="382" y="82.2" font-family="Pretendard, Pretendard Variable, sans-serif" font-size="18" font-weight="600" fill="#fff" fill-opacity="0.7" text-anchor="end">☆</text><text x="20" y="134.9" font-family="Pretendard, Pretendard Variable, sans-serif" font-size="34" font-weight="800" fill="#fff">73,400원</text><text x="20" y="161.1" font-family="Pretendard, Pretendard Variable, sans-serif" font-size="14" font-weight="700" fill="#FF8480">▲ 1,200 (1.66%)  오늘</text><rect x="0" y="191" width="402" height="587" fill="#F6F7FA"></rect><rect x="12" y="207" width="378" height="180" rx="16" fill="#fff"></rect><rect x="28" y="300" width="346" height="1" fill="#E7EAF0"></rect><polyline points="28,310 54,304 80,313 106,292 132,298 158,280 184,286 210,266 236,273 262,258 288,264 314,248 340,254 366,238 392,232" fill="none" stroke="#E8322E" stroke-width="2.5" stroke-linejoin="round"></polyline><rect x="28" y="318" width="47.5" height="32" rx="16" fill="#D70082" stroke="#D70082" stroke-width="1"></rect><text x="51.75" y="336.9" font-family="Pretendard, Pretendard Variable, sans-serif" font-size="12.5" font-weight="700" fill="#fff" text-anchor="middle">1일</text><rect x="83.5" y="318" width="47.5" height="32" rx="16" fill="#fff" stroke="#E7EAF0" stroke-width="1"></rect><text x="107.25" y="336.9" font-family="Pretendard, Pretendard Variable, sans-serif" font-size="12.5" font-weight="600" fill="#6B7689" text-anchor="middle">1주</text><rect x="139" y="318" width="60" height="32" rx="16" fill="#fff" stroke="#E7EAF0" stroke-width="1"></rect><text x="169" y="336.9" font-family="Pretendard, Pretendard Variable, sans-serif" font-size="12.5" font-weight="600" fill="#6B7689" text-anchor="middle">1개월</text><rect x="207" y="318" width="47.5" height="32" rx="16" fill="#fff" stroke="#E7EAF0" stroke-width="1"></rect><text x="230.75" y="336.9" font-family="Pretendard, Pretendard Variable, sans-serif" font-size="12.5" font-weight="600" fill="#6B7689" text-anchor="middle">1년</text><rect x="12" y="399" width="378" height="80" rx="16" fill="#fff"></rect><text x="29" y="424.9" font-family="Pretendard, Pretendard Variable, sans-serif" font-size="12.5" font-weight="700" fill="#6B7689">내가 가진 주식</text><text x="29" y="448.4" font-family="Pretendard, Pretendard Variable, sans-serif" font-size="17" font-weight="800" fill="#1A2233">3주 · 220,200원</text><text x="373" y="424.9" font-family="Pretendard, Pretendard Variable, sans-serif" font-size="12.5" font-weight="700" fill="#6B7689" text-anchor="end">수익률</text><text x="373" y="448.4" font-family="Pretendard, Pretendard Variable, sans-serif" font-size="17" font-weight="800" fill="#E8322E" text-anchor="end">▲ 2.4%</text><rect x="12" y="491" width="378" height="102" rx="16" fill="#fff"></rect><text x="29" y="518.5" font-family="Pretendard, Pretendard Variable, sans-serif" font-size="14.5" font-weight="800" fill="#1A2233">이 회사는 무슨 일을 해?</text><text x="29" y="541.3" font-family="Pretendard, Pretendard Variable, sans-serif" font-size="13" font-weight="600" fill="#6B7689">휴대폰과 TV를 만들고, 그 안에 들어가는 기억장치(반도</text><text x="29" y="561.3" font-family="Pretendard, Pretendard Variable, sans-serif" font-size="13" font-weight="600" fill="#6B7689">체)도 만들어. 우리가 쓰는 전자제품 대부분에 이 회사</text><text x="29" y="581.3" font-family="Pretendard, Pretendard Variable, sans-serif" font-size="13" font-weight="600" fill="#6B7689">부품이 들어가 있어.</text><rect x="12" y="605" width="378" height="82" rx="16" fill="#fff"></rect><text x="29" y="632.5" font-family="Pretendard, Pretendard Variable, sans-serif" font-size="14.5" font-weight="800" fill="#1A2233">최근 무슨 일이 있었어?</text><text x="29" y="655.3" font-family="Pretendard, Pretendard Variable, sans-serif" font-size="13" font-weight="600" fill="#6B7689">반도체 가격이 오르고 있다는 뉴스가 나왔어. 회사가 새</text><text x="29" y="675.3" font-family="Pretendard, Pretendard Variable, sans-serif" font-size="13" font-weight="600" fill="#6B7689">공장을 짓겠다고도 발표했어.</text><rect x="196" y="700" width="186" height="50" rx="25" fill="#FFF0F8" stroke="#FBD3EA" stroke-width="1.5"></rect><rect x="204" y="708" width="34" height="34" rx="17" fill="#F8DCEE" stroke="#D70082" stroke-width="1" stroke-dasharray="3 3"></rect><text x="221" y="727.3" font-family="Pretendard, Pretendard Variable, sans-serif" font-size="8" font-weight="600" fill="#D70082" text-anchor="middle">키웅이</text><text x="248" y="728.3" font-family="Pretendard, Pretendard Variable, sans-serif" font-size="13" font-weight="800" fill="#D70082">궁금한 거 물어봐!</text><rect x="0" y="778" width="402" height="62" fill="#fff"></rect><rect x="0" y="778" width="402" height="1" fill="#E7EAF0"></rect><rect x="18" y="786" width="110" height="52" rx="12" fill="#fff" stroke="#001E5A" stroke-width="1.5"></rect><text x="73" y="815.6" font-family="Pretendard, Pretendard Variable, sans-serif" font-size="16" font-weight="800" fill="#001E5A" text-anchor="middle">매도</text><rect x="140" y="786" width="244" height="52" rx="12" fill="#D70082"></rect><text x="262" y="815.6" font-family="Pretendard, Pretendard Variable, sans-serif" font-size="16" font-weight="800" fill="#fff" text-anchor="middle">매수</text><rect x="0" y="840" width="402" height="34" fill="#fff"></rect><rect x="131" y="854" width="140" height="5" rx="2.5" fill="#000"></rect>
</g></g></svg>