<svg xmlns="http://www.w3.org/2000/svg" width="450" height="920" viewBox="0 0 450 920">
<defs><linearGradient id="ti" x1="0" y1="0" x2="1" y2="0.35"><stop offset="0" stop-color="#8E8E93"></stop><stop offset=".12" stop-color="#E6E6EA"></stop><stop offset=".3" stop-color="#B9B9BF"></stop><stop offset=".52" stop-color="#F2F2F4"></stop><stop offset=".72" stop-color="#A8A8AE"></stop><stop offset=".88" stop-color="#E3E3E7"></stop><stop offset="1" stop-color="#8E8E93"></stop></linearGradient>
<clipPath id="sc"><rect x="0" y="0" width="402" height="874" rx="40"></rect></clipPath></defs>
<rect width="450" height="920" fill="#FFFFFF"></rect>
<g id="frame">
<rect x="12" y="11" width="426" height="898" rx="56" fill="url(#ti)"></rect>
<rect x="20" y="19" width="410" height="882" rx="48" fill="#0B0B0D"></rect>
<rect x="7" y="228" width="6" height="42" rx="2" fill="#A6A6AC"></rect>
<rect x="6" y="290" width="7" height="68" rx="2" fill="#BDBDC3"></rect>
<rect x="6" y="376" width="7" height="68" rx="2" fill="#BDBDC3"></rect>
<rect x="437" y="318" width="7" height="100" rx="2" fill="#BDBDC3"></rect></g>
<g id="screen" transform="translate(24 23)"><g clip-path="url(#sc)"><rect width="402" height="874" fill="#F6F7FA"></rect>
<rect x="0" y="0" width="402" height="122" fill="#001E5A"></rect><rect x="138.5" y="13.665" width="125" height="37" rx="18.5" fill="#000"></rect><text x="70.5" y="37.3" font-family="Pretendard, Pretendard Variable, sans-serif" font-size="15" font-weight="700" fill="#fff" text-anchor="middle">9:41</text><rect x="285.09" y="34" width="3" height="4" rx="1" fill="#fff" fill-opacity="1"></rect><rect x="290.28999999999996" y="31" width="3" height="7" rx="1" fill="#fff" fill-opacity="1"></rect><rect x="295.48999999999995" y="28" width="3" height="10" rx="1" fill="#fff" fill-opacity="1"></rect><rect x="300.69" y="25" width="3" height="13" rx="1" fill="#fff" fill-opacity="0.4"></rect><g fill="none" stroke="#fff" stroke-width="1.7" stroke-linecap="round"><path d="M311.8 29.4a10.5 10.5 0 0 1 15 0"></path><path d="M314.4 32.3a6.9 6.9 0 0 1 9.8 0"></path><path d="M317.1 35.1a3.2 3.2 0 0 1 4.4 0"></path></g><rect x="335.08" y="25.67" width="22" height="11.5" rx="3.4" fill="none" stroke="#fff" stroke-width="1"></rect><rect x="336.8" y="27.4" width="18.5" height="8" rx="2.1" fill="#fff"></rect><path d="M358.6 29.4c1 .35 1.4.95 1.4 1.9s-.4 1.55-1.4 1.9z" fill="#fff" fill-opacity=".45"></path><text x="20" y="81.8" font-family="Pretendard, Pretendard Variable, sans-serif" font-size="20" font-weight="600" fill="#fff" fill-opacity="0.8">‹</text><text x="38" y="82.0" font-family="Pretendard, Pretendard Variable, sans-serif" font-size="19" font-weight="800" fill="#fff">가족리그 개설</text><rect x="0" y="122" width="402" height="718" fill="#F6F7FA"></rect><text x="18" y="146.3" font-family="Pretendard, Pretendard Variable, sans-serif" font-size="13" font-weight="600" fill="#6B7689">부모님 계정에서 4단계면 끝나요</text><rect x="12" y="170" width="378" height="378" rx="16" fill="#fff"></rect><rect x="29" y="190" width="28" height="28" rx="14" fill="#D70082" stroke="#D70082" stroke-width="1.5"></rect><text x="43" y="207.9" font-family="Pretendard, Pretendard Variable, sans-serif" font-size="12.5" font-weight="800" fill="#fff" text-anchor="middle">1</text><rect x="42" y="222" width="2" height="50" fill="#E7EAF0"></rect><text x="70" y="204.5" font-family="Pretendard, Pretendard Variable, sans-serif" font-size="14.5" font-weight="800" fill="#1A2233">리그 만들기</text><text x="70" y="225.9" font-family="Pretendard, Pretendard Variable, sans-serif" font-size="12.5" font-weight="600" fill="#6B7689">시즌 기간과 리그 이름을 정해요.</text><text x="70" y="245.9" font-family="Pretendard, Pretendard Variable, sans-serif" font-size="12.5" font-weight="600" fill="#6B7689">(예: 민지네 가족 리그)</text><rect x="29" y="302" width="28" height="28" rx="14" fill="#D70082" stroke="#D70082" stroke-width="1.5"></rect><text x="43" y="319.9" font-family="Pretendard, Pretendard Variable, sans-serif" font-size="12.5" font-weight="800" fill="#fff" text-anchor="middle">2</text><rect x="42" y="334" width="2" height="50" fill="#E7EAF0"></rect><text x="70" y="316.5" font-family="Pretendard, Pretendard Variable, sans-serif" font-size="14.5" font-weight="800" fill="#1A2233">자녀 초대</text><text x="70" y="337.9" font-family="Pretendard, Pretendard Variable, sans-serif" font-size="12.5" font-weight="600" fill="#6B7689">6자리 초대 코드를 아이에게 전달해요.</text><rect x="29" y="414" width="28" height="28" rx="14" fill="#fff" stroke="#E7EAF0" stroke-width="1.5"></rect><text x="43" y="431.9" font-family="Pretendard, Pretendard Variable, sans-serif" font-size="12.5" font-weight="800" fill="#6B7689" text-anchor="middle">3</text><rect x="42" y="446" width="2" height="50" fill="#E7EAF0"></rect><text x="70" y="428.5" font-family="Pretendard, Pretendard Variable, sans-serif" font-size="14.5" font-weight="800" fill="#1A2233">자녀 수락 + 법정대리인 동의</text><text x="70" y="449.9" font-family="Pretendard, Pretendard Variable, sans-serif" font-size="12.5" font-weight="600" fill="#6B7689">아이가 코드를 입력하면 부모님 동의</text><text x="70" y="469.9" font-family="Pretendard, Pretendard Variable, sans-serif" font-size="12.5" font-weight="600" fill="#6B7689">절차가 진행돼요.</text><rect x="29" y="526" width="28" height="28" rx="14" fill="#fff" stroke="#E7EAF0" stroke-width="1.5"></rect><text x="43" y="543.9" font-family="Pretendard, Pretendard Variable, sans-serif" font-size="12.5" font-weight="800" fill="#6B7689" text-anchor="middle">4</text><text x="70" y="540.5" font-family="Pretendard, Pretendard Variable, sans-serif" font-size="14.5" font-weight="800" fill="#1A2233">프리셋 선택</text><text x="70" y="561.9" font-family="Pretendard, Pretendard Variable, sans-serif" font-size="12.5" font-weight="600" fill="#6B7689">입문형 — 한 종목 최대 30%</text><text x="70" y="581.9" font-family="Pretendard, Pretendard Variable, sans-serif" font-size="12.5" font-weight="600" fill="#6B7689">성장형 — 최대 40%</text><rect x="12" y="566" width="378" height="84" rx="16" fill="#fff"></rect><rect x="29" y="586" width="44" height="44" rx="22" fill="#EDF0F5" stroke="#BEBEBE" stroke-width="1" stroke-dasharray="3 3"></rect><text x="51" y="610.2" font-family="Pretendard, Pretendard Variable, sans-serif" font-size="8.5" font-weight="600" fill="#6B7689" text-anchor="middle">영웅이</text><text x="87" y="595.9" font-family="Pretendard, Pretendard Variable, sans-serif" font-size="12.5" font-weight="700" fill="#6B7689">개설 완료 시</text><text x="87" y="621.0" font-family="Pretendard, Pretendard Variable, sans-serif" font-size="19" font-weight="800" fill="#001E5A">가상금 1,000만 원 지급</text><rect x="12" y="774" width="378" height="52" rx="12" fill="#D70082"></rect><text x="201" y="803.6" font-family="Pretendard, Pretendard Variable, sans-serif" font-size="16" font-weight="800" fill="#fff" text-anchor="middle">리그 만들기</text><rect x="0" y="840" width="402" height="34" fill="#F6F7FA"></rect><rect x="131" y="854" width="140" height="5" rx="2.5" fill="#000"></rect>
</g></g></svg>