<svg xmlns="http://www.w3.org/2000/svg" width="390" height="844" viewBox="0 0 390 844">
<title>매도 근거 선택</title>
<rect width="390" height="844" fill="#FFFFFF"/>
<g font-family="Pretendard, Apple SD Gothic Neo, Noto Sans KR, Arial, sans-serif">
<!-- phone outer -->
<rect x="7" y="7" width="376" height="830" rx="54" fill="#D5D7DB"/>
<rect x="15" y="15" width="360" height="814" rx="48" fill="#111"/>
<clipPath id="screenClip"><rect x="19" y="19" width="352" height="806" rx="43"/></clipPath>
<g clip-path="url(#screenClip)">
<rect x="19" y="19" width="352" height="806" fill="#F4F5F8"/>
<!-- status -->
<rect x="19" y="19" width="352" height="78" fill="#082B6F"/>
<text x="50" y="54" font-size="13" font-weight="700" fill="#fff">9:41</text>
<rect x="145" y="31" width="100" height="32" rx="16" fill="#000"/>
<g fill="#fff">
<rect x="291" y="48" width="3" height="6" rx="1"/>
<rect x="297" y="44" width="3" height="10" rx="1"/>
<rect x="303" y="40" width="3" height="14" rx="1"/>
<path d="M314 45q10-9 20 0M317 49q7-6 14 0M321 53q3-3 6 0" fill="none" stroke="#fff" stroke-width="1.5" stroke-linecap="round"/>
<rect x="340" y="41" width="22" height="11" rx="3" fill="none" stroke="#fff" stroke-width="1.3"/>
<rect x="362" y="44" width="2" height="5" rx="1"/>
</g>
<text x="42" y="89" font-size="23" font-weight="700" fill="#fff">‹</text><text x="60" y="88" font-size="18" font-weight="700" fill="#fff">매도</text>
<circle cx="43" cy="107" r="2" fill="#6380B7"/>
<rect x="52" y="105" width="18" height="4" rx="2" fill="#fff"/>
<circle cx="79" cy="107" r="2" fill="#6380B7"/><rect x="19" y="97" width="352" height="728" fill="#F4F5F8"/><text x="34" y="138" font-size="20" font-weight="800" fill="#14213D">왜 팔려고 해?</text>
<text x="34" y="160" font-size="10" fill="#6A7894">판 이유도 남겨두면 다음에 비교해볼 수 있어</text><rect x="34" y="180" width="322" height="37" rx="18.5" fill="#E6007E" stroke="#E6007E"/>
<text x="50" y="204" font-size="12" font-weight="700" fill="#FFFFFF">충분히 올랐다고 생각해서</text><rect x="34" y="227" width="322" height="37" rx="18.5" fill="#FFFFFF" stroke="#DFE3EA"/>
<text x="50" y="251" font-size="12" font-weight="700" fill="#14213D">앞으로 떨어질 것 같아서</text><rect x="34" y="274" width="322" height="37" rx="18.5" fill="#FFFFFF" stroke="#DFE3EA"/>
<text x="50" y="298" font-size="12" font-weight="700" fill="#14213D">다른 회사에 투자하고 싶어서</text><rect x="34" y="321" width="322" height="37" rx="18.5" fill="#FFFFFF" stroke="#DFE3EA"/>
<text x="50" y="345" font-size="12" font-weight="700" fill="#14213D">손실이 더 커질까 걱정돼서</text><rect x="34" y="368" width="322" height="37" rx="18.5" fill="#FFFFFF" stroke="#DFE3EA"/>
<text x="50" y="392" font-size="12" font-weight="700" fill="#14213D">기타</text><text x="34" y="445" font-size="11" font-weight="700" fill="#6A7894">내 생각 한 줄 (선택)</text>
<rect x="34" y="458" width="322" height="48" rx="10" fill="#ECEFF4" stroke="#DFE3EA"/>
<text x="48" y="487" font-size="11" fill="#6A7894">두 달 동안 많이 올라서 조금만 정리할래</text><rect x="32" y="752" width="326" height="48" rx="11" fill="#E6007E"/>
<text x="195" y="782" text-anchor="middle" font-size="15" font-weight="700" fill="#fff">매도하기</text>
<!-- home indicator -->
<rect x="143" y="810" width="104" height="5" rx="3" fill="#000"/>
</g></g></svg>